<?xml version="1.0" encoding="UTF-8"?>
<svg id="Layer_2" xmlns="http://www.w3.org/2000/svg" viewBox="0 0 386.51 337.55">
  <defs>
    <style>
      .cls-1 {
        fill: #f15a24;
      }
    </style>
  </defs>
  <g id="Layer_1-2" data-name="Layer_1">
    <path class="cls-1" d="M83.02,0h0c45.82,0,83.02,37.2,83.02,83.02h0c0,45.82-37.2,83.02-83.02,83.02H0v-83.02C0,37.2,37.2,0,83.02,0Z"/>
    <path class="cls-1" d="M0,170.75h83.02c45.82,0,83.02,37.2,83.02,83.02h0c0,45.82-37.2,83.02-83.02,83.02h0C37.2,336.79,0,299.59,0,253.77v-83.02h0Z"/>
    <path class="cls-1" d="M336.68,337.55h-83.02c-45.82,0-83.02-37.2-83.02-83.02h0c0-45.82,37.2-83.02,83.02-83.02h0c45.82,0,83.02,37.2,83.02,83.02v83.02h0Z"/>
    <path class="cls-1" d="M363.9,336.78h-22.61v-22.61c0-12.48,10.13-22.61,22.61-22.61h0c12.48,0,22.61,10.13,22.61,22.61h0c0,12.48-10.13,22.61-22.61,22.61Z"/>
  </g>
</svg>